<svg width="36" height="36" viewBox="0 0 36 36" fill="none" xmlns="http://www.w3.org/2000/svg">
<g clip-path="url(#clip0_26_821)">
<path fill-rule="evenodd" clip-rule="evenodd" d="M12.285 5.42857V3.14286H23.7136V5.42857H12.285ZM11.7136 0.857143C10.7668 0.857143 9.99928 1.62465 9.99928 2.57143V3.14286H8.85643C6.96287 3.14286 5.42786 4.67787 5.42786 6.57143V29.4286C5.42786 31.3221 6.96287 32.8571 8.85643 32.8571H16.8564V30.5714H8.85643C8.22525 30.5714 7.71357 30.0597 7.71357 29.4286V6.57143C7.71357 5.94025 8.22525 5.42857 8.85643 5.42857H9.99928V6C9.99928 6.94677 10.7668 7.71429 11.7136 7.71429H24.285C25.2317 7.71429 25.9993 6.94677 25.9993 6V5.42857H27.1421C27.7732 5.42857 28.285 5.94025 28.285 6.57143V16.8571H30.5707V6.57143C30.5707 4.67787 29.0356 3.14286 27.1421 3.14286H25.9993V2.57143C25.9993 1.62465 25.2317 0.857143 24.285 0.857143H11.7136ZM21.4279 20.2857C21.4279 20.9169 20.9162 21.4286 20.285 21.4286C19.6538 21.4286 19.1421 20.9169 19.1421 20.2857C19.1421 19.6545 19.6538 19.1429 20.285 19.1429C20.9162 19.1429 21.4279 19.6545 21.4279 20.2857ZM24.8564 21.4286C25.4875 21.4286 25.9993 20.9169 25.9993 20.2857C25.9993 19.6545 25.4875 19.1429 24.8564 19.1429C24.2253 19.1429 23.7136 19.6545 23.7136 20.2857C23.7136 20.9169 24.2253 21.4286 24.8564 21.4286ZM30.5707 20.2857C30.5707 20.9169 30.0589 21.4286 29.4279 21.4286C28.7968 21.4286 28.285 20.9169 28.285 20.2857C28.285 19.6545 28.7968 19.1429 29.4279 19.1429C30.0589 19.1429 30.5707 19.6545 30.5707 20.2857ZM33.9993 21.4286C34.6304 21.4286 35.1421 20.9169 35.1421 20.2857C35.1421 19.6545 34.6304 19.1429 33.9993 19.1429C33.3682 19.1429 32.8564 19.6545 32.8564 20.2857C32.8564 20.9169 33.3682 21.4286 33.9993 21.4286ZM35.1421 24.8571C35.1421 25.4882 34.6304 26 33.9993 26C33.3682 26 32.8564 25.4882 32.8564 24.8571C32.8564 24.2261 33.3682 23.7143 33.9993 23.7143C34.6304 23.7143 35.1421 24.2261 35.1421 24.8571ZM33.9993 30.5714C34.6304 30.5714 35.1421 30.0597 35.1421 29.4286C35.1421 28.7975 34.6304 28.2857 33.9993 28.2857C33.3682 28.2857 32.8564 28.7975 32.8564 29.4286C32.8564 30.0597 33.3682 30.5714 33.9993 30.5714ZM33.9993 35.1429C34.6304 35.1429 35.1421 34.6311 35.1421 34C35.1421 33.3689 34.6304 32.8571 33.9993 32.8571C33.3682 32.8571 32.8564 33.3689 32.8564 34C32.8564 34.6311 33.3682 35.1429 33.9993 35.1429ZM20.285 26C20.9162 26 21.4279 25.4882 21.4279 24.8571C21.4279 24.2261 20.9162 23.7143 20.285 23.7143C19.6538 23.7143 19.1421 24.2261 19.1421 24.8571C19.1421 25.4882 19.6538 26 20.285 26ZM21.4279 29.4286C21.4279 30.0597 20.9162 30.5714 20.285 30.5714C19.6538 30.5714 19.1421 30.0597 19.1421 29.4286C19.1421 28.7975 19.6538 28.2857 20.285 28.2857C20.9162 28.2857 21.4279 28.7975 21.4279 29.4286ZM20.285 35.1429C20.9162 35.1429 21.4279 34.6311 21.4279 34C21.4279 33.3689 20.9162 32.8571 20.285 32.8571C19.6538 32.8571 19.1421 33.3689 19.1421 34C19.1421 34.6311 19.6538 35.1429 20.285 35.1429ZM25.9993 34C25.9993 34.6311 25.4875 35.1429 24.8564 35.1429C24.2253 35.1429 23.7136 34.6311 23.7136 34C23.7136 33.3689 24.2253 32.8571 24.8564 32.8571C25.4875 32.8571 25.9993 33.3689 25.9993 34ZM29.4279 35.1429C30.0589 35.1429 30.5707 34.6311 30.5707 34C30.5707 33.3689 30.0589 32.8571 29.4279 32.8571C28.7968 32.8571 28.285 33.3689 28.285 34C28.285 34.6311 28.7968 35.1429 29.4279 35.1429Z" fill="#E3E5F2"/>
</g>
<defs>
<clipPath id="clip0_26_821">
<rect width="34.2857" height="34.2857" fill="white" transform="translate(0.856445 0.857143)"/>
</clipPath>
</defs>
</svg>
