<svg width="36" height="36" viewBox="0 0 36 36" fill="none" xmlns="http://www.w3.org/2000/svg">
<path d="M29.1786 10.5938H24.9492L23.2037 8.04443C22.715 7.39653 21.9603 7 21.0978 7H15.9022C15.0397 7 14.2388 7.39653 13.7973 8.04443L12.0508 10.5938H7.82143C7.36579 10.5938 7 10.914 7 11.3125V12.0312C7 12.4311 7.36579 12.75 7.82143 12.75H8.64286V27.125C8.64286 28.713 10.1137 30 11.9286 30H25.0714C26.8863 30 28.3571 28.713 28.3571 27.125V12.75H29.1786C29.6355 12.75 30 12.4311 30 12.0312V11.3125C30 10.914 29.6355 10.5938 29.1786 10.5938ZM15.8252 9.28563C15.8766 9.20701 15.9792 9.15625 16.0871 9.15625H20.9129C21.022 9.15625 21.1247 9.20679 21.1761 9.2854L22.0732 10.5938H14.9268L15.8252 9.28563ZM25.0714 27.8438H11.9286C11.4749 27.8438 11.1071 27.522 11.1071 27.125V12.75H25.8929V27.125C25.8929 27.5203 25.5232 27.8438 25.0714 27.8438ZM18.5 25.6875C18.954 25.6875 19.3214 25.366 19.3214 24.9688V15.625C19.3214 15.2277 18.954 14.9062 18.5 14.9062C18.046 14.9062 17.6786 15.2297 17.6786 15.625V24.9688C17.6786 25.3641 18.0482 25.6875 18.5 25.6875ZM14.3929 25.6875C14.8446 25.6875 15.2143 25.3641 15.2143 24.9688V15.625C15.2143 15.2277 14.8469 14.9062 14.3929 14.9062C13.9388 14.9062 13.5714 15.2297 13.5714 15.625V24.9688C13.5714 25.3641 13.9411 25.6875 14.3929 25.6875ZM22.6071 25.6875C23.0612 25.6875 23.4286 25.366 23.4286 24.9688V15.625C23.4286 15.2277 23.0612 14.9062 22.6071 14.9062C22.1531 14.9062 21.7857 15.2297 21.7857 15.625V24.9688C21.7857 25.3641 22.1554 25.6875 22.6071 25.6875Z" fill="#E3E5F2"/>
</svg>
