<svg width="36" height="36" viewBox="0 0 36 36" fill="none" xmlns="http://www.w3.org/2000/svg">
<path d="M18 3C15.2311 3 12.5243 3.82109 10.222 5.35942C7.91973 6.89776 6.12532 9.08426 5.06569 11.6424C4.00607 14.2006 3.72882 17.0155 4.26901 19.7313C4.80921 22.447 6.14258 24.9416 8.10051 26.8995C10.0584 28.8574 12.553 30.1908 15.2687 30.731C17.9845 31.2712 20.7994 30.9939 23.3576 29.9343C25.9157 28.8747 28.1022 27.0803 29.6406 24.778C31.1789 22.4757 32 19.7689 32 17C32 13.287 30.525 9.72601 27.8995 7.1005C25.274 4.475 21.713 3 18 3ZM25.2635 14.0816L16.3544 22.9907C16.1157 23.2293 15.792 23.3634 15.4545 23.3634C15.1171 23.3634 14.7934 23.2293 14.5547 22.9907L10.7365 19.1725C10.5047 18.9325 10.3764 18.611 10.3793 18.2773C10.3822 17.9436 10.5161 17.6244 10.7521 17.3884C10.988 17.1524 11.3072 17.0186 11.6409 17.0157C11.9747 17.0128 12.2961 17.1411 12.5362 17.3729L15.4545 20.2913L23.4638 12.282C23.7039 12.0502 24.0254 11.9219 24.3591 11.9248C24.6928 11.9277 25.012 12.0615 25.248 12.2975C25.4839 12.5335 25.6178 12.8527 25.6207 13.1864C25.6236 13.5201 25.4953 13.8416 25.2635 14.0816Z" fill="white"/>
</svg>
